<svg xmlns="http://www.w3.org/2000/svg" width="1920" height="1080" viewBox="0 0 1920 1080"><rect width="100%" height="100%" fill="#3b2a1a"/><path fill="#f5ecd7" d="M592.705 437.825h-127.11v84.75h107.31v42.57h-107.31v116.62h-53.46v-286.31h180.57zm125.73 37.62q22.58 0 41.09 7.33t31.68 20.79 20.29 32.87q7.13 19.4 7.13 43.36 0 24.16-7.13 43.56-7.12 19.4-20.29 33.07-13.17 13.66-31.68 20.98-18.51 7.33-41.09 7.33-22.77 0-41.38-7.33-18.61-7.32-31.78-20.98-13.16-13.67-20.39-33.07t-7.23-43.56q0-23.96 7.23-43.36 7.23-19.41 20.39-32.87 13.17-13.46 31.78-20.79t41.38-7.33m0 171.67q25.35 0 37.52-17.03 12.18-17.03 12.18-49.89 0-32.87-12.18-50.1-12.17-17.22-37.52-17.22-25.74 0-38.11 17.32-12.38 17.33-12.38 50t12.38 49.79q12.37 17.13 38.11 17.13m205.33 37.82q-26.53 0-40.69-14.95t-14.16-41.28v-113.46h-20.79q-3.96 0-6.73-2.57-2.77-2.58-2.77-7.72v-19.41l32.67-5.34 10.3-55.44q.99-3.96 3.76-6.14t7.13-2.18h25.34v63.95h54.25v34.85h-54.25v110.09q0 9.5 4.65 14.85 4.66 5.35 12.77 5.35 4.56 0 7.63-1.09t5.34-2.28q2.28-1.19 4.06-2.28t3.57-1.09q2.17 0 3.56 1.09t2.97 3.27l14.65 23.76q-10.69 8.91-24.55 13.46-13.86 4.56-28.71 4.56m169.49-209.49q22.57 0 41.08 7.33 18.52 7.33 31.68 20.79 13.17 13.46 20.3 32.87 7.13 19.4 7.13 43.36 0 24.16-7.13 43.56t-20.3 33.07q-13.16 13.66-31.68 20.98-18.51 7.33-41.08 7.33-22.77 0-41.38-7.33-18.62-7.32-31.78-20.98-13.17-13.67-20.4-33.07-7.22-19.4-7.22-43.56 0-23.96 7.22-43.36 7.23-19.41 20.4-32.87 13.16-13.46 31.78-20.79 18.61-7.33 41.38-7.33m0 171.67q25.34 0 37.52-17.03t12.18-49.89q0-32.87-12.18-50.1-12.18-17.22-37.52-17.22-25.74 0-38.12 17.32-12.37 17.33-12.37 50t12.37 49.79q12.38 17.13 38.12 17.13m363.13-1.98h51.48v36.63h-158.4v-36.63h58.01v-166.91q0-9.9.6-20.4l-41.19 34.45q-3.56 2.78-7.02 3.47-3.47.69-6.54.1-3.07-.6-5.44-2.08-2.38-1.49-3.57-3.27l-15.44-21.18 87.32-74.25h40.19z"/></svg>