<svg xmlns="http://www.w3.org/2000/svg" width="600" height="400" viewBox="0 0 600 400"><rect width="100%" height="100%" fill="#3b2a1a"/><path fill="#f5ecd7" d="M182.7 167.98h-39.81v26.53h33.61v13.33h-33.61v36.52h-16.74v-89.65h56.55zm39.37 11.78q7.06 0 12.86 2.29t9.92 6.51 6.36 10.29q2.23 6.08 2.23 13.58 0 7.56-2.23 13.64-2.24 6.08-6.36 10.35-4.12 4.28-9.92 6.58-5.8 2.29-12.86 2.29-7.13 0-12.96-2.29-5.83-2.3-9.95-6.58-4.13-4.27-6.39-10.35t-2.26-13.64q0-7.5 2.26-13.58 2.26-6.07 6.39-10.29 4.12-4.22 9.95-6.51t12.96-2.29m0 53.75q7.93 0 11.74-5.33 3.82-5.33 3.82-15.63 0-10.29-3.82-15.68-3.81-5.4-11.74-5.4-8.06 0-11.94 5.43-3.87 5.42-3.87 15.65t3.87 15.6q3.88 5.36 11.94 5.36m64.29 11.84q-8.31 0-12.74-4.68t-4.43-12.93v-35.52h-6.51q-1.24 0-2.11-.81-.87-.8-.87-2.42v-6.07l10.23-1.68 3.22-17.36q.31-1.24 1.18-1.92t2.23-.68h7.94v20.03h16.99v10.91H284.5v34.47q0 2.98 1.46 4.65 1.45 1.67 4 1.67 1.42 0 2.38-.34t1.68-.71q.71-.37 1.27-.71t1.11-.34q.69 0 1.12.34t.93 1.02l4.59 7.44q-3.35 2.79-7.69 4.22-4.34 1.42-8.99 1.42m53.07-65.59q7.07 0 12.87 2.29 5.79 2.29 9.92 6.51 4.12 4.22 6.35 10.29 2.23 6.08 2.23 13.58 0 7.56-2.23 13.64t-6.35 10.35q-4.13 4.28-9.92 6.58-5.8 2.29-12.87 2.29-7.13 0-12.96-2.29-5.82-2.3-9.95-6.58-4.12-4.27-6.38-10.35-2.27-6.08-2.27-13.64 0-7.5 2.27-13.58 2.26-6.07 6.38-10.29 4.13-4.22 9.95-6.51 5.83-2.29 12.96-2.29m0 53.75q7.94 0 11.75-5.33t3.81-15.63q0-10.29-3.81-15.68-3.81-5.4-11.75-5.4-8.06 0-11.93 5.43-3.88 5.42-3.88 15.65t3.88 15.6q3.87 5.36 11.93 5.36m82.52-22.94h27.28v-29.33q0-4.15.56-9.17zm40.61 0h11.29v8.87q0 1.24-.81 2.13-.8.9-2.29.9h-8.19v21.89h-13.33v-21.89h-37.82q-1.55 0-2.72-.96-1.18-.96-1.49-2.38l-1.61-7.75 42.47-56.73h14.5z"/></svg>