<svg xmlns="http://www.w3.org/2000/svg" width="600" height="400" viewBox="0 0 600 400"><rect width="100%" height="100%" fill="#3b2a1a"/><path fill="#f5ecd7" d="M184.035 168.445h-39.81v26.53h33.61v13.33h-33.61v36.52h-16.74v-89.65h56.55zm39.37 11.78q7.06 0 12.86 2.29t9.92 6.51 6.36 10.29q2.23 6.08 2.23 13.58 0 7.56-2.23 13.64-2.24 6.08-6.36 10.35-4.12 4.28-9.92 6.58-5.8 2.29-12.86 2.29-7.13 0-12.96-2.29-5.83-2.3-9.95-6.58-4.13-4.27-6.39-10.35t-2.26-13.64q0-7.5 2.26-13.58 2.26-6.07 6.39-10.29 4.12-4.22 9.95-6.51t12.96-2.29m0 53.75q7.93 0 11.74-5.33 3.82-5.33 3.82-15.63 0-10.29-3.82-15.68-3.81-5.4-11.74-5.4-8.06 0-11.94 5.43-3.87 5.42-3.87 15.65t3.87 15.6q3.88 5.36 11.94 5.36m64.29 11.84q-8.31 0-12.74-4.68t-4.43-12.93v-35.52h-6.51q-1.24 0-2.11-.81-.87-.8-.87-2.42v-6.07l10.23-1.68 3.22-17.36q.31-1.24 1.18-1.92t2.23-.68h7.94v20.03h16.99v10.91h-16.99v34.47q0 2.98 1.46 4.65 1.45 1.67 4 1.67 1.42 0 2.38-.34t1.68-.71q.71-.37 1.27-.71t1.11-.34q.69 0 1.12.34t.93 1.02l4.59 7.44q-3.35 2.79-7.69 4.22-4.34 1.42-8.99 1.42m53.07-65.59q7.07 0 12.87 2.29 5.79 2.29 9.92 6.51 4.12 4.22 6.35 10.29 2.23 6.08 2.23 13.58 0 7.56-2.23 13.64t-6.35 10.35q-4.13 4.28-9.92 6.58-5.8 2.29-12.87 2.29-7.13 0-12.96-2.29-5.82-2.3-9.95-6.58-4.12-4.27-6.38-10.35-2.27-6.08-2.27-13.64 0-7.5 2.27-13.58 2.26-6.07 6.38-10.29 4.13-4.22 9.95-6.51 5.83-2.29 12.96-2.29m0 53.75q7.94 0 11.75-5.33t3.81-15.63q0-10.29-3.81-15.68-3.81-5.4-11.75-5.4-8.06 0-11.93 5.43-3.88 5.42-3.88 15.65t3.88 15.6q3.87 5.36 11.93 5.36m80.42-52.39-8.06-1.43q.93-6.44 3.59-11.31 2.67-4.87 6.67-8.12 4-3.26 9.17-4.9 5.18-1.64 11.13-1.64 6.2 0 11.19 1.76 4.99 1.77 8.53 4.9 3.53 3.13 5.42 7.35 1.89 4.21 1.89 9.11 0 4.28-.96 7.54-.96 3.25-2.76 5.67-1.79 2.42-4.46 4.09t-6.01 2.79q8.06 2.54 12.02 7.75 3.97 5.21 3.97 13.08 0 6.7-2.48 11.84-2.48 5.15-6.69 8.65-4.22 3.51-9.77 5.3-5.55 1.8-11.75 1.8-6.76 0-11.78-1.55t-8.74-4.59q-3.72-3.03-6.32-7.44-2.61-4.4-4.47-10.16l6.76-2.79q2.67-1.12 4.99-.59 2.33.52 3.38 2.51 1.12 2.17 2.45 4.28 1.33 2.1 3.19 3.75 1.86 1.64 4.37 2.66 2.51 1.03 5.99 1.03 3.9 0 6.82-1.28 2.91-1.27 4.86-3.31 1.96-2.05 2.92-4.56t.96-5.05q0-3.23-.68-5.86-.69-2.64-2.86-4.5t-6.23-2.91-10.88-1.05v-10.92q5.64-.06 9.36-1.05t5.92-2.76q2.21-1.77 3.07-4.25.87-2.48.87-5.45 0-6.33-3.53-9.61-3.54-3.29-9.43-3.29-2.72 0-5.02.78-2.29.77-4.12 2.17-1.83 1.39-3.07 3.25t-1.86 4.09q-1.05 2.86-2.76 3.79-1.7.93-4.8.43"/></svg>