<svg xmlns="http://www.w3.org/2000/svg" width="800" height="800" viewBox="0 0 800 800"><rect width="100%" height="100%" fill="#3b2a1a"/><path fill="#f5ecd7" d="M245.6 358.01h-52.97v35.31h44.72v17.74h-44.72v48.59h-22.27v-119.3h75.24zm52.39 15.67q9.4 0 17.11 3.06 7.72 3.05 13.2 8.66 5.49 5.61 8.46 13.7 2.97 8.08 2.97 18.06 0 10.07-2.97 18.15-2.97 8.09-8.46 13.78-5.48 5.69-13.2 8.74-7.71 3.06-17.11 3.06-9.49 0-17.25-3.06-7.75-3.05-13.24-8.74-5.48-5.69-8.5-13.78-3.01-8.08-3.01-18.15 0-9.98 3.01-18.06 3.02-8.09 8.5-13.7 5.49-5.61 13.24-8.66 7.76-3.06 17.25-3.06m0 71.53q10.56 0 15.63-7.09 5.07-7.1 5.07-20.79 0-13.7-5.07-20.88-5.07-7.17-15.63-7.17-10.73 0-15.89 7.22-5.15 7.21-5.15 20.83 0 13.61 5.15 20.75 5.16 7.13 15.89 7.13m85.55 15.76q-11.06 0-16.96-6.23-5.89-6.23-5.89-17.2v-47.27h-8.67q-1.65 0-2.8-1.07-1.16-1.08-1.16-3.22v-8.09l13.62-2.22 4.29-23.11q.41-1.64 1.56-2.55 1.16-.91 2.97-.91h10.56v26.65h22.61v14.52h-22.61v45.87q0 3.96 1.94 6.19 1.94 2.22 5.32 2.22 1.9 0 3.18-.45t2.23-.95 1.69-.95 1.48-.45q.91 0 1.49.45t1.24 1.36l6.1 9.9q-4.45 3.71-10.23 5.61-5.77 1.9-11.96 1.9m70.62-87.29q9.4 0 17.12 3.06 7.71 3.05 13.2 8.66 5.48 5.61 8.45 13.7 2.97 8.08 2.97 18.06 0 10.07-2.97 18.15-2.97 8.09-8.45 13.78-5.49 5.69-13.2 8.74-7.72 3.06-17.12 3.06-9.49 0-17.24-3.06-7.76-3.05-13.25-8.74-5.48-5.69-8.49-13.78-3.01-8.08-3.01-18.15 0-9.98 3.01-18.06 3.01-8.09 8.49-13.7 5.49-5.61 13.25-8.66 7.75-3.06 17.24-3.06m0 71.53q10.56 0 15.63-7.09 5.08-7.1 5.08-20.79 0-13.7-5.08-20.88-5.07-7.17-15.63-7.17-10.73 0-15.88 7.22-5.16 7.21-5.16 20.83 0 13.61 5.16 20.75 5.15 7.13 15.88 7.13m137.69-4.54h30.61q3.3 0 5.24 1.86t1.94 4.91v12.21H547.8v-6.77q0-2.06.86-4.33.87-2.27 2.77-4.08l36.21-36.3q4.54-4.62 8.13-8.83t5.98-8.33q2.39-4.13 3.67-8.37 1.28-4.25 1.28-8.96 0-4.29-1.24-7.54-1.24-3.26-3.5-5.49-2.27-2.23-5.45-3.34-3.17-1.11-7.14-1.11-3.63 0-6.72 1.03t-5.49 2.88q-2.39 1.86-4.04 4.34-1.65 2.47-2.47 5.44-1.41 3.79-3.63 5.03-2.23 1.24-6.44.58l-10.72-1.9q1.23-8.58 4.78-15.05 3.55-6.48 8.87-10.81t12.21-6.52 14.81-2.19q8.25 0 15.1 2.44 6.84 2.43 11.71 6.89 4.87 4.45 7.59 10.72t2.72 13.94q0 6.6-1.93 12.21-1.94 5.61-5.2 10.73-3.26 5.11-7.63 9.9-4.37 4.78-9.16 9.74l-26.89 27.47q3.87-1.16 7.71-1.78t7.3-.62"/></svg>